Coordinates
version=1
nRows=8
nColumns=36
inDegrees=yes

Units are S.I. units (second, meters, Newtons, ...)
If the header above contains a line with 'inDegrees', this indicates whether rotational values are in degrees (yes) or radians (no).

endheader
time	pelvis_tilt	pelvis_list	pelvis_rotation	pelvis_tx	pelvis_ty	pelvis_tz	hip_flexion_r	hip_adduction_r	hip_rotation_r	knee_angle_r	knee_angle_r_beta	ankle_angle_r	subtalar_angle_r	mtp_angle_r	hip_flexion_l	hip_adduction_l	hip_rotation_l	knee_angle_l	knee_angle_l_beta	ankle_angle_l	subtalar_angle_l	mtp_angle_l	lumbar_extension	lumbar_bending	lumbar_rotation	arm_flex_r	arm_add_r	arm_rot_r	elbow_flex_r	pro_sup_r	arm_flex_l	arm_add_l	arm_rot_l	elbow_flex_l	pro_sup_l
      0.00000000	     -4.76094828	     -0.49783542	    -10.01973998	     -0.06402700	      1.26097654	     -0.35990835	      5.52164242	      2.88937492	      4.85045549	      6.84903523	      0.11953822	      0.63856127	    -16.51971746	     -6.98347246	      7.03205879	     -0.05985705	      1.89461779	      7.15553646	      0.12488767	     11.48274402	     -4.26472071	     -6.98347246	     -1.80246373	      2.11906847	     -4.82347388	      6.64127546	    -10.18901902	     12.82536752	     17.59037692	     85.57885901	      0.46421820	    -11.97212398	      9.01509936	     24.77560222	     86.19129747
      0.01666670	     -5.06163701	     -0.32321747	    -10.39833093	     -0.06322674	      1.25948744	     -0.36005221	      5.22999707	      2.75736216	      3.53031453	      5.29350373	      0.09238907	      2.53266535	    -13.72594380	     -7.04994207	      6.69372789	      0.13295878	      0.66516312	      6.09466223	      0.10637192	     10.28413150	     -4.76598478	     -7.04994207	     -1.49584542	      2.05397814	     -4.05323286	      6.28817264	    -10.21654213	     13.36649477	     17.44490589	     87.15085632	      0.59980084	    -11.21181578	      8.30434989	     23.62464245	     86.92403330
      0.03333330	     -5.56054492	      0.03272638	    -10.36868038	     -0.06253838	      1.25910690	     -0.35969521	      4.95044818	      2.56142293	      2.88603307	      4.11778847	      0.07186897	      2.13801175	    -13.28190234	     -7.17874860	      6.75356701	      0.32330845	      1.34135720	      4.99382934	      0.08715876	      9.40895305	     -5.07050798	     -7.17874860	     -0.88971485	      1.74600688	     -4.17007837	      6.29165321	    -10.12954396	     12.96885203	     16.79278673	     94.45698372	      0.68629501	    -11.08060419	      6.87059594	     22.79452021	     93.58884284
      0.05000000	     -5.15200282	      0.01005721	    -10.01350357	     -0.05153264	      1.25885733	     -0.36046506	      3.76597780	      2.38952053	      1.62429837	      3.21458052	      0.05610501	      2.39038925	    -12.82201227	     -7.18958173	      5.34025420	      0.40123992	      1.08119646	      4.39696273	      0.07674148	      8.92134149	     -5.53145569	     -7.18958173	     -1.00049696	      1.67071920	     -4.61980965	      6.20583012	     -9.91188051	     12.54786605	     16.30046287	     94.77614282	      0.58294727	    -10.79922059	      6.47550353	     22.13747797	     93.95034402
      0.06666670	     -4.99902923	      0.19697347	    -10.22586752	     -0.05129790	      1.25913987	     -0.36043601	      3.36809510	      2.18765249	      1.59640458	      2.90498486	      0.05070155	      2.94214850	    -12.43139283	     -7.29581967	      4.76235895	      0.70943043	      0.98088068	      4.26350012	      0.07441211	      9.12402767	     -5.51786903	     -7.29581967	     -0.79837415	      1.41873720	     -4.59944514	      6.24207656	     -9.76130893	     12.23994576	     15.72552414	     98.07091199	      0.45033709	    -10.46336078	      5.14509142	     21.64652532	     97.56117649
      0.08333330	     -5.04505079	      0.28941630	    -10.24242818	     -0.05177671	      1.25895992	     -0.36028960	      3.33308627	      2.13098998	      1.43178326	      2.87097550	      0.05010798	      3.25530207	    -12.41792500	     -7.31095983	      4.65547750	      0.88220582	      1.11937442	      4.17406757	      0.07285122	      9.21326575	     -5.62994292	     -7.31095983	     -0.56618639	      1.32146684	     -4.59012441	      6.06307960	     -9.65781079	     12.24800460	     15.59713748	     97.19149170	      0.19650054	    -10.38376749	      5.19909437	     21.56485910	     96.72967433
      0.10000000	     -5.37175791	      0.42958641	    -10.26009113	     -0.05170645	      1.25860791	     -0.36027632	      3.64962316	      2.06742779	      1.34858794	      2.99916808	      0.05234536	      3.42156130	    -12.32840735	     -7.35797071	      4.91925206	      1.03600602	      0.94465531	      4.16825060	      0.07274970	      9.50545750	     -5.13736207	     -7.35797071	      0.11419239	      1.20830423	     -4.57307732	      5.91745261	     -9.66458414	     13.34321736	     15.25923337	     98.08068627	     -0.00989737	    -10.42350476	      6.01920652	     21.21813544	     97.88340958
      0.11666670	     -5.45137867	      0.56110010	    -10.22773769	     -0.05208237	      1.25838661	     -0.36013189	      3.74766189	      1.97432553	      1.37972567	      3.10814666	      0.05424739	      3.61350755	    -12.37285300	     -7.36800847	      5.03082666	      1.20145635	      0.96950355	      4.04474992	      0.07059420	      9.58049402	     -5.00503408	     -7.36800847	      0.24783403	      1.04953875	     -4.58868114	      5.69821293	     -9.56738459	     13.29741221	     15.42058811	     97.24398952	     -0.26310297	    -10.45942056	      6.03721480	     21.44881252	     97.08381441
